<?xml version="1.0" encoding="UTF-8"?>
<svg xmlns="http://www.w3.org/2000/svg" xmlns:xlink="http://www.w3.org/1999/xlink" viewBox="215.68 182.32 154.72 194.56">
<path fill-rule="nonzero" fill="rgb(0%, 97.999573%, 99.598694%)" fill-opacity="1" d="M 218.617188 265.15625 C 218.617188 263.039062 218.578125 261.113281 218.625 259.1875 C 218.871094 248.734375 218.179688 238.148438 219.605469 227.855469 C 222.34375 208.070312 232.96875 193.613281 252.167969 186.613281 C 256.507812 185.03125 261.457031 184.5625 266.132812 184.539062 C 299.335938 184.375 332.542969 184.453125 365.746094 184.46875 C 366.320312 184.46875 366.890625 184.585938 367.671875 184.675781 C 369.621094 191.519531 367.367188 197.925781 365.203125 204.089844 C 360.074219 218.703125 350.152344 229.015625 334.761719 231.996094 C 325.46875 233.796875 315.699219 233.421875 306.140625 233.484375 C 291.308594 233.578125 276.410156 232.292969 261.652344 233.265625 C 241.390625 234.601562 226.527344 244.496094 219.859375 264.636719 C 219.808594 264.796875 219.402344 264.839844 218.617188 265.15625 "/>
<path fill-rule="nonzero" fill="rgb(0%, 97.999573%, 99.598694%)" fill-opacity="1" d="M 320.90625 240.421875 C 302.550781 240.429688 284.191406 240.320312 265.835938 240.484375 C 264.132812 240.5 262.402344 240.609375 260.683594 240.8125 L 260.683594 289.316406 C 262.023438 289.265625 263.382812 289.246094 264.773438 289.296875 C 276.019531 289.691406 287.410156 289.910156 298.175781 285.503906 C 315.289062 278.5 323.78125 259.789062 324.613281 243.25 C 324.761719 240.328125 322.902344 240.421875 320.90625 240.421875 "/>
<path fill-rule="nonzero" fill="rgb(0%, 70.999146%, 90.99884%)" fill-opacity="1" d="M 218.472656 375.054688 C 218.472656 365.78125 218.421875 356.511719 218.484375 347.242188 C 218.597656 330.410156 225.027344 316.386719 237.917969 305.617188 C 243.933594 300.59375 250.996094 297.296875 259.0625 297.058594 C 259.929688 297.03125 261.621094 298.476562 261.609375 299.214844 C 261.4375 310.222656 261.621094 321.285156 260.507812 332.214844 C 259.710938 340.015625 253.851562 344.730469 246.660156 347.261719 C 232.933594 352.09375 224.273438 361.769531 218.472656 375.054688 "/>
<path fill-rule="nonzero" fill="rgb(0.39978%, 48.999023%, 75.299072%)" fill-opacity="1" d="M 255.324219 185.691406 L 255.324219 234.003906 C 257.019531 233.71875 258.753906 233.503906 260.535156 233.355469 L 260.535156 184.820312 C 258.769531 184.996094 257.023438 185.285156 255.324219 185.691406 "/>
<path fill-rule="nonzero" fill="rgb(0.39978%, 48.999023%, 75.299072%)" fill-opacity="1" d="M 255.324219 241.773438 L 255.324219 289.804688 C 257.019531 289.558594 258.753906 289.398438 260.535156 289.324219 L 260.535156 240.828125 C 258.777344 241.039062 257.027344 241.355469 255.324219 241.773438 "/>
<path fill-rule="nonzero" fill="rgb(0.39978%, 48.999023%, 75.299072%)" fill-opacity="1" d="M 260.535156 297.75 C 260.03125 297.351562 259.460938 297.046875 259.0625 297.058594 C 250.996094 297.296875 243.933594 300.59375 237.917969 305.617188 C 225.027344 316.386719 218.597656 330.410156 218.484375 347.242188 C 218.421875 356.511719 218.472656 365.78125 218.472656 375.054688 C 224.273438 361.769531 232.933594 352.09375 246.660156 347.261719 C 253.851562 344.730469 259.710938 340.015625 260.507812 332.214844 C 260.515625 332.105469 260.523438 331.996094 260.535156 331.890625 Z M 260.535156 297.75 "/>
<path fill-rule="nonzero" fill="rgb(2.69928%, 41.598511%, 62.69989%)" fill-opacity="1" d="M 255.621094 185.617188 C 254.441406 185.890625 253.28125 186.207031 252.167969 186.613281 C 232.96875 193.613281 222.34375 208.066406 219.605469 227.855469 C 218.179688 238.148438 218.871094 248.734375 218.625 259.1875 C 218.578125 261.113281 218.617188 263.039062 218.617188 265.15625 C 219.402344 264.839844 219.808594 264.796875 219.859375 264.636719 C 225.84375 246.554688 238.445312 236.738281 255.621094 233.953125 Z M 255.621094 185.617188 "/>
<path fill-rule="nonzero" fill="rgb(2.69928%, 41.598511%, 62.69989%)" fill-opacity="1" d="M 255.621094 241.695312 C 255.066406 241.828125 254.519531 241.96875 253.976562 242.121094 C 234.320312 247.703125 223.265625 261.832031 219.863281 280.964844 C 217.476562 294.375 218.386719 308.375 217.777344 323.160156 C 221.066406 317.011719 223.09375 311.636719 226.441406 307.273438 C 234.113281 297.269531 243.816406 291.414062 255.621094 289.765625 Z M 255.621094 241.695312 "/>
<path fill-rule="nonzero" fill="rgb(2.69928%, 41.598511%, 62.69989%)" fill-opacity="1" d="M 255.621094 301.894531 C 255.179688 301.519531 254.675781 301.238281 254.320312 301.246094 C 247.199219 301.472656 240.960938 304.550781 235.648438 309.246094 C 224.257812 319.308594 218.582031 332.414062 218.480469 348.140625 C 218.425781 356.804688 218.46875 365.46875 218.46875 374.132812 C 223.59375 361.71875 231.242188 352.679688 243.367188 348.160156 C 249.71875 345.796875 254.894531 341.390625 255.597656 334.097656 C 255.605469 334 255.613281 333.898438 255.621094 333.796875 Z M 255.621094 301.894531 "/>
<path fill-rule="nonzero" fill="rgb(0%, 70.999146%, 90.99884%)" fill-opacity="1" d="M 363.371094 188.578125 C 362.625 188.5 362.078125 188.390625 361.53125 188.390625 C 329.789062 188.378906 298.050781 188.304688 266.3125 188.457031 C 264.410156 188.464844 262.464844 188.554688 260.535156 188.761719 L 260.535156 233.398438 C 261.027344 233.355469 261.527344 233.316406 262.027344 233.28125 C 276.136719 232.386719 290.378906 233.570312 304.554688 233.484375 C 313.691406 233.429688 323.03125 233.769531 331.914062 232.113281 C 346.621094 229.375 356.109375 219.886719 361.011719 206.441406 C 363.082031 200.769531 365.234375 194.875 363.371094 188.578125 "/>
<path fill-rule="nonzero" fill="rgb(0%, 70.999146%, 90.99884%)" fill-opacity="1" d="M 317.890625 243.613281 C 300.453125 243.617188 283.015625 243.519531 265.578125 243.671875 C 263.957031 243.683594 262.316406 243.789062 260.683594 243.976562 L 260.683594 289.328125 C 261.957031 289.28125 263.246094 289.261719 264.566406 289.308594 C 275.25 289.679688 286.070312 289.882812 296.296875 285.761719 C 312.550781 279.214844 320.621094 261.71875 321.40625 246.257812 C 321.546875 243.527344 319.785156 243.609375 317.890625 243.613281 "/>
</svg>
